<svg width="451" height="416" viewBox="0 0 451 416" fill="none" xmlns="http://www.w3.org/2000/svg">
<path fill-rule="evenodd" clip-rule="evenodd" d="M372.743 406.727C420.753 364.048 451 301.821 451 232.53C451 108.862 354.654 7.69642 232.927 0C242.591 2.66453 252.137 5.89054 261.515 9.67708C321.406 33.8579 370.303 79.2137 398.846 137.114L309.153 181.331C291.492 145.505 261.215 117.399 224.077 102.404C186.936 87.409 145.557 86.5877 107.847 100.099C70.1394 113.61 38.7645 140.495 19.6889 175.595C0.614879 210.691 -4.83559 251.557 4.36718 290.399C13.5703 329.242 36.791 363.367 69.6267 386.244C102.465 409.122 142.612 419.14 182.4 414.365C216.245 410.304 247.791 395.784 272.743 373.083V316.115H169.165V216.115H322.743H372.743V266.115V393.465V406.727Z" fill="#641ECC"/>
</svg>
