<svg width="451" height="416" viewBox="0 0 451 416" fill="none" xmlns="http://www.w3.org/2000/svg">
<path fill-rule="evenodd" clip-rule="evenodd" d="M372.743 407.197C420.753 364.518 451 302.291 451 233C451 109.332 354.654 8.16687 232.927 0.470459C242.591 3.13498 252.137 6.361 261.515 10.1475C321.406 34.3284 370.303 79.6842 398.846 137.584L309.153 181.802C291.492 145.976 261.215 117.869 224.077 102.875C186.937 87.8794 145.558 87.0582 107.847 100.57C70.1396 114.08 38.7646 140.966 19.6891 176.065C0.614986 211.162 -4.83549 252.028 4.36729 290.869C13.5705 329.712 36.7911 363.837 69.6268 386.714C102.465 409.593 142.612 419.61 182.4 414.836C216.245 410.774 247.792 396.254 272.743 373.554V316.585H169.165V216.585H322.743H372.743V266.585V393.935V407.197Z" fill="white"/>
</svg>
